<svg version="1.1" id="Layer_1" xmlns="http://www.w3.org/2000/svg" xmlns:xlink="http://www.w3.org/1999/xlink" x="0px" y="0px"
	 width="100%" viewBox="0 0 418 445" enable-background="new 0 0 418 445" xml:space="preserve">
<path fill="#ffffffff" opacity="1.000000" stroke="none" 
	d="
M248.959167,70.885818 
	C248.959167,70.885818 249.051178,70.441528 249.462906,70.269791 
	C254.719482,70.723984 256.180298,74.823814 258.532776,78.198700 
	C261.897034,83.025116 265.702118,87.544250 269.318970,92.194595 
	C269.644196,92.762413 269.969391,93.330223 270.251648,94.565750 
	C269.597229,98.190735 269.872864,101.811996 268.234619,104.000771 
	C254.474808,122.384766 243.374420,142.079361 237.495331,164.404877 
	C236.611938,167.759552 237.189804,171.499054 237.091705,175.060532 
	C237.075211,186.657227 235.893768,198.398453 237.310394,209.817352 
	C239.533890,227.740112 249.052551,242.419739 261.622559,255.171356 
	C263.857727,257.438812 266.013336,257.955872 269.193573,257.228668 
	C288.619293,252.786835 305.910858,244.244293 319.991791,230.099533 
	C337.865234,212.145081 348.029053,190.486237 350.109772,165.010498 
	C353.036865,129.172668 341.787140,97.611816 321.929230,68.498657 
	C321.649048,68.087929 321.124054,67.778976 320.997650,67.340530 
	C320.572815,65.867393 320.276886,64.357086 319.931610,62.861004 
	C321.397797,63.178757 323.150421,63.084785 324.287323,63.875816 
	C342.422272,76.493950 358.326477,91.420265 371.550079,109.214653 
	C391.576630,136.163376 404.845032,166.090378 409.658203,199.260101 
	C417.329681,252.127701 407.875732,301.674042 377.381531,346.186218 
	C348.472809,388.384064 308.703339,415.678436 259.316772,428.441406 
	C246.564880,431.736877 233.138535,432.795288 219.940018,433.915436 
	C188.565598,436.578156 158.330017,431.183533 129.429825,418.896179 
	C107.078079,409.393005 86.810844,396.566742 69.100525,379.711212 
	C52.546284,363.956024 38.790749,346.117645 28.152962,325.991089 
	C17.746767,306.302734 10.362641,285.402863 8.145617,263.157776 
	C6.632450,247.975067 6.045810,232.630371 6.236377,217.372971 
	C6.355562,207.830688 8.687855,198.316040 10.357759,188.186340 
	C13.251786,184.794510 15.500527,181.933533 12.884838,177.962112 
	C13.079319,177.131088 13.273801,176.300064 13.888392,175.031326 
	C14.508144,173.375702 14.707786,172.157806 14.907428,170.939896 
	C15.095937,170.113297 15.284445,169.286713 15.982687,168.050461 
	C20.487940,163.162613 22.551903,158.018250 21.907543,151.939804 
	C22.100824,151.416046 22.294104,150.892288 22.992962,150.017914 
	C24.611629,148.491302 26.018963,147.480759 26.788710,146.111740 
	C30.909775,138.782333 34.933853,131.396118 38.845253,123.952713 
	C39.825321,122.087639 40.266552,119.939400 40.955421,117.921303 
	C40.955421,117.921303 40.968075,117.979561 41.258583,117.843094 
	C45.351231,112.444885 49.153370,107.183151 52.955509,101.921425 
	C52.955509,101.921425 52.966000,101.978981 53.291389,101.891747 
	C57.346992,100.944847 59.108398,98.350204 59.787663,94.801949 
	C59.787663,94.801949 59.741215,94.824142 60.085617,94.705841 
	C67.832405,87.758263 75.237381,80.931808 82.624443,74.086014 
	C82.843422,73.883095 82.873940,73.476807 82.992317,73.165337 
	C85.114342,71.544312 87.236359,69.923286 89.852386,68.354630 
	C90.913254,69.307800 91.480103,70.208611 92.046944,71.109421 
	C90.755203,73.543945 89.463455,75.978462 87.735016,78.898087 
	C85.638817,81.430397 83.370041,83.230675 82.423286,85.566734 
	C77.868065,96.806541 73.574509,108.156609 69.456627,119.564476 
	C68.899223,121.108658 69.858841,123.200439 70.116028,125.038658 
	C70.057907,125.480087 69.999779,125.921509 69.752640,126.828217 
	C69.406830,127.882309 69.250031,128.471130 69.093231,129.059952 
	C69.041046,129.497437 68.988853,129.934906 68.658699,130.901703 
	C68.198318,133.280228 68.015907,135.129456 67.833488,136.978683 
	C67.850281,137.433212 67.867073,137.887741 67.615311,138.872101 
	C67.176018,141.260361 67.005272,143.118790 66.834526,144.977203 
	C66.860901,149.350906 66.887283,153.724609 66.652046,158.835068 
	C64.313477,163.396118 64.435051,166.915451 67.834221,169.980133 
	C67.898766,170.718979 67.963310,171.457840 67.934982,172.898590 
	C68.506264,176.059616 69.170433,178.518753 69.834602,180.977890 
	C69.893135,181.412659 69.951675,181.847427 69.927422,182.935974 
	C70.604370,185.715836 71.364105,187.841888 72.123848,189.967957 
	C78.235359,205.249893 86.320305,219.332855 98.334145,230.748215 
	C112.776939,244.471542 129.927628,253.281540 149.484985,257.155334 
	C151.180832,257.491241 153.731491,256.525452 155.054596,255.281174 
	C178.158066,233.553955 186.108719,206.875916 180.463028,175.924820 
	C175.758942,150.135849 163.649597,127.745255 148.356674,106.881035 
	C142.897079,99.432503 142.778381,99.549385 147.854218,91.675674 
	C152.627365,84.271477 157.289337,76.795013 162.114975,69.425499 
	C164.801422,65.322899 165.771805,65.278122 168.239243,69.509758 
	C175.020187,81.139038 181.610260,92.879623 188.271805,104.578484 
	C189.142227,106.107101 189.988907,107.649239 191.639435,108.889061 
	C188.290176,92.015602 184.702118,75.183365 181.776550,58.236763 
	C181.127502,54.477085 181.754608,49.707710 183.618057,46.444946 
	C190.454681,34.474537 198.049362,22.936483 205.381638,11.250063 
	C207.786407,7.417274 209.506470,7.223139 211.920868,11.023095 
	C220.032196,23.789162 228.167709,36.552177 235.743851,49.634933 
	C237.156296,52.073986 236.558563,56.087551 235.972412,59.202061 
	C233.516129,72.253204 230.711380,85.238770 227.703262,98.809319 
	C227.192719,100.906616 227.013184,102.442963 226.833649,103.979301 
	C226.902710,105.035294 226.971756,106.091286 226.804169,107.732498 
	C225.902557,109.648003 225.237564,110.978287 224.572571,112.308578 
	C225.278702,112.669739 225.984833,113.030907 226.690979,113.392067 
	C230.448181,107.286110 235.704651,102.007614 235.906693,93.939522 
	C236.100662,93.415771 236.294647,92.892014 237.003784,92.032700 
	C243.399811,85.896523 247.538666,79.138321 248.959167,70.885818 
z"/>
<path fill="#ffffffff" opacity="1.000000" stroke="none" 
	d="
M237.308914,174.747406 
	C237.189804,171.499054 236.611938,167.759552 237.495331,164.404877 
	C243.374420,142.079361 254.474808,122.384766 268.234619,104.000771 
	C269.872864,101.811996 269.597229,98.190735 270.181274,94.810791 
	C274.363953,96.972046 274.528687,100.051750 271.636108,103.878181 
	C258.867371,120.769302 247.830093,138.636353 241.522064,159.046051 
	C239.958801,164.103989 238.845993,169.301132 237.308914,174.747406 
z"/>
<path fill="#ffffffff" opacity="1.000000" stroke="none" 
	d="
M70.331329,124.737564 
	C69.858841,123.200439 68.899223,121.108658 69.456627,119.564476 
	C73.574509,108.156609 77.868065,96.806541 82.423286,85.566734 
	C83.370041,83.230675 85.638817,81.430397 87.565750,79.202690 
	C87.477989,80.451393 87.441521,82.071121 86.718590,83.280510 
	C79.048012,96.112679 74.397652,110.113892 70.331329,124.737564 
z"/>
<path fill="#ffffffff" opacity="1.000000" stroke="none" 
	d="
M40.672768,118.109718 
	C40.266552,119.939400 39.825321,122.087639 38.845253,123.952713 
	C34.933853,131.396118 30.909775,138.782333 26.788710,146.111740 
	C26.018963,147.480759 24.611629,148.491302 23.188232,149.816650 
	C28.715322,139.410065 34.552719,128.854095 40.672768,118.109718 
z"/>
<path fill="#ffffffff" opacity="1.000000" stroke="none" 
	d="
M269.259460,91.810776 
	C265.702118,87.544250 261.897034,83.025116 258.532776,78.198700 
	C256.180298,74.823814 254.719482,70.723984 249.519730,70.050171 
	C251.853073,65.225266 252.449753,65.126381 255.199829,69.389748 
	C259.917114,76.702858 264.538361,84.077904 269.259460,91.810776 
z"/>
<path fill="#ffffffff" opacity="1.000000" stroke="none" 
	d="
M82.673309,73.272522 
	C82.873940,73.476807 82.843422,73.883095 82.624443,74.086014 
	C75.237381,80.931808 67.832405,87.758263 60.091377,94.680733 
	C60.400074,93.470970 60.733185,91.808884 61.745541,90.923096 
	C68.534416,84.983055 75.467781,79.208160 82.673309,73.272522 
z"/>
<path fill="#ffffffff" opacity="1.000000" stroke="none" 
	d="
M235.666489,94.177338 
	C235.704651,102.007614 230.448181,107.286110 226.690979,113.392067 
	C225.984833,113.030907 225.278702,112.669739 224.572571,112.308578 
	C225.237564,110.978287 225.902557,109.648003 226.831696,108.128510 
	C229.872635,103.431252 232.649460,98.923203 235.666489,94.177338 
z"/>
<path fill="#ffffffff" opacity="1.000000" stroke="none" 
	d="
M248.683655,71.092331 
	C247.538666,79.138321 243.399811,85.896523 237.199219,91.831451 
	C240.722382,85.076790 244.565262,78.187820 248.683655,71.092331 
z"/>
<path fill="#ffffffff" opacity="1.000000" stroke="none" 
	d="
M92.364761,70.990875 
	C91.480103,70.208611 90.913254,69.307800 90.126617,68.172981 
	C92.073395,65.818588 94.163612,63.608166 96.469742,61.652332 
	C96.941895,61.251892 98.223213,61.805531 99.131546,61.919380 
	C99.011040,62.810772 99.205498,63.971664 98.714233,64.545815 
	C96.822678,66.756470 94.711723,68.779404 92.364761,70.990875 
z"/>
<path fill="#ffffffff" opacity="1.000000" stroke="none" 
	d="
M52.673355,102.105270 
	C49.153370,107.183151 45.351231,112.444885 41.229630,117.836014 
	C44.737175,112.739975 48.564186,107.514542 52.673355,102.105270 
z"/>
<path fill="#ffffffff" opacity="1.000000" stroke="none" 
	d="
M21.681316,152.213867 
	C22.551903,158.018250 20.487940,163.162613 16.185162,167.803650 
	C17.736963,162.806976 19.596025,157.647446 21.681316,152.213867 
z"/>
<path fill="#ffffffff" opacity="1.000000" stroke="none" 
	d="
M12.670271,178.259537 
	C15.500527,181.933533 13.251786,184.794510 10.426627,187.780090 
	C10.928451,184.836670 11.692078,181.696823 12.670271,178.259537 
z"/>
<path fill="#ffffffff" opacity="1.000000" stroke="none" 
	d="
M67.860504,169.564407 
	C64.435051,166.915451 64.313477,163.396118 66.612167,159.300323 
	C67.184875,162.402100 67.535835,165.775391 67.860504,169.564407 
z"/>
<path fill="#ffffffff" opacity="1.000000" stroke="none" 
	d="
M59.463810,94.889076 
	C59.108398,98.350204 57.346992,100.944847 53.264816,101.879501 
	C54.988560,99.628395 57.064259,97.302299 59.463810,94.889076 
z"/>
<path fill="#ffffffff" opacity="1.000000" stroke="none" 
	d="
M69.848053,180.593933 
	C69.170433,178.518753 68.506264,176.059616 67.965210,173.268311 
	C68.679382,175.360748 69.270439,177.785370 69.848053,180.593933 
z"/>
<path fill="#ffffffff" opacity="1.000000" stroke="none" 
	d="
M72.082169,189.590424 
	C71.364105,187.841888 70.604370,185.715836 69.966843,183.262726 
	C70.739532,185.028076 71.390007,187.120468 72.082169,189.590424 
z"/>
<path fill="#ffffffff" opacity="1.000000" stroke="none" 
	d="
M66.900345,144.602554 
	C67.005272,143.118790 67.176018,141.260361 67.590050,139.212524 
	C67.544273,140.758041 67.255219,142.492981 66.900345,144.602554 
z"/>
<path fill="#ffffffff" opacity="1.000000" stroke="none" 
	d="
M67.930748,136.610352 
	C68.015907,135.129456 68.198318,133.280228 68.607422,131.228119 
	C68.565399,132.764175 68.296700,134.503082 67.930748,136.610352 
z"/>
<path fill="#ffffffff" opacity="1.000000" stroke="none" 
	d="
M227.001465,103.650879 
	C227.013184,102.442963 227.192719,100.906616 227.603333,99.196243 
	C227.612701,100.455620 227.390976,101.889038 227.001465,103.650879 
z"/>
<path fill="#ffffffff" opacity="1.000000" stroke="none" 
	d="
M14.694512,171.221344 
	C14.707786,172.157806 14.508144,173.375702 14.091604,174.782578 
	C14.077003,173.815292 14.279301,172.659042 14.694512,171.221344 
z"/>
<path fill="#ffffffff" opacity="1.000000" stroke="none" 
	d="
M69.278992,128.849945 
	C69.250031,128.471130 69.406830,127.882309 69.699165,127.157837 
	C69.711388,127.561440 69.588066,128.100693 69.278992,128.849945 
z"/>
</svg>